# xmcd CD database file
# 
# Track frame offsets:
# 182
# 15022
# 27220
# 38637
# 52485
# 61410
# 73382
# 83477
# 93290
# 104507
# 119227
# 130310
# 149380
# 162187
# 176390
# 188650
# 211002
# 227682
# 240197
# 250272
# 268515
# 282607
# 295700
# 313850
# 
# Disc length: 4444 seconds
#
# 
# Revision: 0
# Processed by: cddbd v1.4PL0 Copyright (c) Steve Scherf et al.
# Submitted via: SuperSonic v3.0
# 
DISCID=56115a18
DTITLE=Various, Country - HOTSTUFF CATALOG SAMPLER
DYEAR=1994
DGENRE=Country
TTITLE0=I SAW THE LIGHT
TTITLE1=FOGGY MOUNTAIN BREAKDOWN
TTITLE2=I AIN'T GOT NOBODY
TTITLE3=TENNESSEE WALTZ
TTITLE4=FEUDIN BANJO'S
TTITLE5=CUP OF LONELINESS
TTITLE6=IT'S ONLY MAKE BELIEVE
TTITLE7=MOHAIR SAM
TTITLE8=KING OF THE ROAD
TTITLE9=STANDING IN THE SHADOWS
TTITLE10=BED OF ROSE'S
TTITLE11=WATERMELON WINE
TTITLE12=SOMETHING
TTITLE13=SPIDERS AND SNAKES
TTITLE14=CAJUN BORN
TTITLE15=TWO MORE BOTTLES OF WINE
TTITLE16=I'M ALMOST READY
TTITLE17=I'M NOT THAT LONELY YET
TTITLE18=OLD FASHIIONED CHRISTMAS POLKA
TTITLE19=COMING HOME
TTITLE20=YOU'RE THE POWER
TTITLE21=WANTED MAN
TTITLE22=STAYING GONE
TTITLE23=YOU'VE GOT TO HIDE YOUR LOVE AWAY
EXTD=
EXTT0=
EXTT1=
EXTT2=
EXTT3=
EXTT4=
EXTT5=
EXTT6=
EXTT7=
EXTT8=
EXTT9=
EXTT10=
EXTT11=
EXTT12=
EXTT13=
EXTT14=
EXTT15=
EXTT16=
EXTT17=
EXTT18=
EXTT19=
EXTT20=
EXTT21=
EXTT22=
EXTT23=
PLAYORDER=
